<svg xmlns="http://www.w3.org/2000/svg" viewBox="0 0 64 64" fill="none">
  <defs>
    <linearGradient id="a" x1="10" y1="8" x2="54" y2="56" gradientUnits="userSpaceOnUse">
      <stop stop-color="#A855F7"/>
      <stop offset="1" stop-color="#6D28D9"/>
    </linearGradient>
  </defs>
  <rect width="64" height="64" rx="16" fill="url(#a)"/>
  <path d="M16 23.5C16 19.91 18.91 17 22.5 17H43a5 5 0 0 1 5 5v4H25a7 7 0 0 0 0 14h23v2a5 5 0 0 1-5 5H22.5A6.5 6.5 0 0 1 16 40.5v-17Z" stroke="white" stroke-width="4" stroke-linejoin="round"/>
  <path d="M45 26H25a7 7 0 1 0 0 14h20a3 3 0 0 0 3-3v-8a3 3 0 0 0-3-3Z" stroke="white" stroke-width="4" stroke-linejoin="round"/>
  <circle cx="27" cy="33" r="2.5" fill="white"/>
</svg>
